<?xml version="1.0" encoding="UTF-8"?>
<svg version="1.1" xmlns="http://www.w3.org/2000/svg" width="623" height="597">
<path d="M0 0 C79.2 0 158.4 0 240 0 C240 39.27 240 78.54 240 119 C240.99 119 241.98 119 243 119 C243 79.73 243 40.46 243 0 C300.73633558 -0.08060607 300.73633558 -0.08060607 324.93164062 -0.09765625 C330.46004244 -0.10157173 335.98844414 -0.10561261 341.5168457 -0.10986328 C342.55612322 -0.11065453 342.55612322 -0.11065453 343.61639625 -0.11146176 C354.78766644 -0.12014961 365.95891595 -0.1359113 377.1301739 -0.15430559 C388.60324326 -0.17303865 400.07629587 -0.18397431 411.54938096 -0.18817699 C417.99011301 -0.19078168 424.43079824 -0.19689318 430.87151527 -0.21146011 C436.93792111 -0.22506887 443.00426097 -0.22921596 449.07068062 -0.22621536 C451.29300546 -0.22676405 453.51533259 -0.23072178 455.7376442 -0.23841095 C458.78170381 -0.24842374 461.82551731 -0.24594585 464.86958313 -0.24050903 C465.74024188 -0.24633472 466.61090063 -0.2521604 467.50794297 -0.25816262 C490.51195869 -0.14780264 512.8620769 9.74965667 529 26 C547.44077388 45.88710909 553.66389244 68.17566603 553.45410156 94.63476562 C553.45297059 96.65680417 553.45361181 98.67884436 553.45587158 100.70088196 C553.45700991 106.13999108 553.43364456 111.5787407 553.40557575 117.01776695 C553.3804139 122.72052518 553.37820852 128.42329346 553.37347412 134.12609863 C553.36108753 144.90272332 553.32832479 155.67918391 553.28807616 166.45573664 C553.24322348 178.73396452 553.22133758 191.01220062 553.20129442 203.29049015 C553.15958796 228.52710511 553.08628999 253.76349538 553 279 C528.91 279 504.82 279 480 279 C480 279.66 480 280.32 480 281 C504.09 281 528.18 281 553 281 C553.08834174 311.03041609 553.16213658 341.06075978 553.20426132 371.09126973 C553.20926357 374.64442419 553.21444091 378.19757837 553.21972656 381.75073242 C553.22130043 382.81169298 553.22130043 382.81169298 553.22290608 383.89408708 C553.24026553 395.31546439 553.27177833 406.73676036 553.30861118 418.15808957 C553.34614529 429.89560539 553.36826206 441.6330789 553.37635398 453.37065226 C553.38155178 459.95583564 553.39369998 466.54083515 553.42292023 473.1259594 C553.45024726 479.33524944 553.45841021 485.5442814 553.45243073 491.75362587 C553.45352326 494.02181785 553.46137322 496.29001925 553.4768219 498.55815887 C553.58274159 514.92391406 552.38201696 530.19275586 545.375 545.25 C545.03581543 545.9925 544.69663086 546.735 544.34716797 547.5 C540.84923352 554.82750151 536.35875984 560.93657144 531 567 C530.21882812 567.89203125 529.43765625 568.7840625 528.6328125 569.703125 C513.3797339 586.00641557 494.49943143 591.88108775 473 597 C444.29 597 415.58 597 386 597 C386 534.96 386 472.92 386 409 C385.01 409 384.02 409 383 409 C383 471.04 383 533.08 383 597 C336.47 597 289.94 597 242 597 C242 534.96 242 472.92 242 409 C240.68 409 239.36 409 238 409 C238 471.04 238 533.08 238 597 C183.22369838 597.08060607 183.22369838 597.08060607 160.22265625 597.09765625 C144.35789768 597.10951108 128.49315873 597.12342739 112.62841797 597.15087891 C101.07284481 597.17086447 89.51728897 597.18372868 77.96169901 597.18817699 C71.84777081 597.19077563 65.73389213 597.19684827 59.61997986 597.21146011 C53.85478226 597.22512575 48.08965417 597.22920462 42.32444191 597.22621536 C40.21870864 597.22676153 38.11297282 597.23068508 36.00725365 597.23841095 C4.80739274 597.34718122 -23.35862009 591.8466844 -46.375 569.0625 C-54.0643696 561.19407652 -59.3421251 553.35337634 -63 543 C-63.50660156 541.75669922 -63.50660156 541.75669922 -64.0234375 540.48828125 C-69.6576205 526.31809919 -70.44198688 512.12423408 -70.3742218 497.09503174 C-70.37696838 495.23616075 -70.38102556 493.37729133 -70.38626546 491.5184257 C-70.39677236 486.45433057 -70.3887758 481.39041401 -70.37751496 476.32632685 C-70.36862466 470.84862696 -70.37713006 465.37094923 -70.38337708 459.89324951 C-70.3928368 449.18315917 -70.38629132 438.47313648 -70.37411413 427.76305118 C-70.36046272 415.2902771 -70.36213457 402.81751895 -70.36424746 390.34473929 C-70.36752894 367.42727384 -70.35464762 344.50983851 -70.33440243 321.59238377 C-70.31600783 300.6712807 -70.31022761 279.75021185 -70.31567383 258.82910156 C-70.31602026 257.48394113 -70.31636636 256.13878069 -70.31671212 254.79362026 C-70.31688311 254.12859398 -70.31705411 253.46356771 -70.31723029 252.77838913 C-70.32271428 231.26971921 -70.32059021 209.76106102 -70.310188 188.25239253 C-70.3089807 185.74627225 -70.30777472 183.24015196 -70.30657005 180.73403168 C-70.30596651 179.50099293 -70.30536298 178.26795418 -70.30474115 176.99755062 C-70.30085817 168.29891501 -70.30125698 159.60028553 -70.3031559 150.90164948 C-70.30527416 140.31366154 -70.30008107 129.72570653 -70.28554235 119.13772789 C-70.27828258 113.73369541 -70.27423491 108.32971099 -70.27878571 102.92567444 C-70.28284595 97.9842026 -70.27774303 93.04283023 -70.26515963 88.10137352 C-70.26221887 86.30906261 -70.26268322 84.5167424 -70.26680271 82.72443381 C-70.27187661 80.29752904 -70.264766 77.87096136 -70.25447559 75.44408035 C-70.25887208 74.74041521 -70.26326856 74.03675007 -70.26779827 73.31176174 C-70.23825156 69.67931669 -69.93517834 67.10045646 -68 64 C-67.43097285 62.63087206 -66.87685678 61.2554744 -66.3359375 59.875 C-62.51582481 50.32864237 -58.742523 40.92958691 -52 33 C-51.34 33 -50.68 33 -50 33 C-49.73832031 32.41605469 -49.47664063 31.83210938 -49.20703125 31.23046875 C-40.69080788 15.49336989 -18.0599864 6.3533288 -2 1 C-1.01 1.495 -1.01 1.495 0 2 C0 1.34 0 0.68 0 0 Z " fill="#FFFFFF" transform="translate(70,0)"/>
<path d="M0 0 C24.09 0 48.18 0 73 0 C73.04898438 5.95933594 73.09796875 11.91867187 73.1484375 18.05859375 C73.18384475 21.84571957 73.21981672 25.6328233 73.2578125 29.41992188 C73.31799806 35.42403923 73.37615147 41.42812587 73.421875 47.43237305 C73.45889113 52.27595998 73.50529446 57.11937622 73.55806351 61.96281624 C73.57652101 63.80583753 73.59166047 65.64889529 73.60334396 67.49197197 C73.62035529 70.08393513 73.64942435 72.67551469 73.68115234 75.26733398 C73.68331253 76.02043854 73.68547272 76.77354309 73.68769836 77.54946899 C73.89959908 91.20029056 79.06557334 102.86739348 88.51171875 112.7421875 C97.9269872 121.28539812 108.8618521 125.82141321 121.51953125 126.31640625 C122.54111328 126.35830078 123.56269531 126.40019531 124.61523438 126.44335938 C125.67033203 126.48267578 126.72542969 126.52199219 127.8125 126.5625 C129.42415039 126.62727539 129.42415039 126.62727539 131.06835938 126.69335938 C133.71212082 126.79910983 136.3559711 126.90120233 139 127 C139.00142502 127.88061096 139.00285004 128.76122192 139.00431824 129.66851807 C139.02214762 137.96744279 139.06375889 146.26583403 139.13209057 154.56450272 C139.16638208 158.8309965 139.19147383 163.09713141 139.19555664 167.36376953 C139.19983509 171.48139003 139.22825878 175.59820069 139.27343178 179.71556854 C139.28642154 181.28638746 139.29070919 182.85730323 139.28615379 184.42816925 C139.2812577 186.62910903 139.30728898 188.82767269 139.34057617 191.02832031 C139.35056892 192.9069577 139.35056892 192.9069577 139.36076355 194.82354736 C139.73391998 198.16340527 139.73391998 198.16340527 142.34980774 200.41229248 C145.56258142 202.33703772 147.31098609 202.47093795 151 202 C153.78526333 201.07157889 154.70923696 200.56442236 156.0625 197.9375 C156.371875 197.298125 156.68125 196.65875 157 196 C157.99 195.67 158.98 195.34 160 195 C160.68486725 193.67592331 161.34870203 192.34090759 162 191 C164 188.75 164 188.75 166 187 C166.66 187 167.32 187 168 187 C168.39638672 186.09701172 168.39638672 186.09701172 168.80078125 185.17578125 C170.06588341 182.8804656 171.15769933 181.81402902 173.1875 180.1875 C178.35061802 175.85959225 182.97924963 171.01886812 187.6315918 166.1550293 C193.41344983 160.23652691 193.41344983 160.23652691 198 159 C198 158.34 198 157.68 198 157 C198.66 157 199.32 157 200 157 C200.35578125 156.15743652 200.35578125 156.15743652 200.71875 155.29785156 C202.29319357 152.47417342 204.21684545 150.52385158 206.5 148.234375 C207.386875 147.34492188 208.27375 146.45546875 209.1875 145.5390625 C210.115625 144.61867188 211.04375 143.69828125 212 142.75 C212.928125 141.81414062 213.85625 140.87828125 214.8125 139.9140625 C215.699375 139.02976562 216.58625 138.14546875 217.5 137.234375 C218.3146875 136.42194336 219.129375 135.60951172 219.96875 134.77246094 C222 133 222 133 224 133 C224.33 132.01 224.66 131.02 225 130 C247.14778645 113.38916017 280.31526694 127 308 127 C308 189.04 308 251.08 308 315 C253.22369838 315.08060607 253.22369838 315.08060607 230.22265625 315.09765625 C214.35789768 315.10951108 198.49315873 315.12342739 182.62841797 315.15087891 C171.07284481 315.17086447 159.51728897 315.18372868 147.96169901 315.18817699 C141.84777081 315.19077563 135.73389213 315.19684827 129.61997986 315.21146011 C123.85478226 315.22512575 118.08965417 315.22920462 112.32444191 315.22621536 C110.21870864 315.22676153 108.11297282 315.23068508 106.00725365 315.23841095 C74.80739274 315.34718122 46.64137991 309.8466844 23.625 287.0625 C15.9356304 279.19407652 10.6578749 271.35337634 7 261 C6.49339844 259.75669922 6.49339844 259.75669922 5.9765625 258.48828125 C-0.23852249 242.85710884 -0.42651225 227.26343235 -0.34057617 210.703125 C-0.3397283 208.39537568 -0.34020816 206.08762556 -0.34190369 203.77987671 C-0.34275881 197.56194195 -0.32521164 191.34418344 -0.30418181 185.12628937 C-0.28533406 178.61073213 -0.28365822 172.09517014 -0.28010559 165.57958984 C-0.2718628 154.6588225 -0.25316801 143.73811967 -0.22631836 132.81738281 C-0.19871222 121.57715165 -0.17751088 110.33693798 -0.16479492 99.09667969 C-0.16400675 98.4019263 -0.16321858 97.70717291 -0.16240653 96.99136639 C-0.15849095 93.50542397 -0.15469994 90.01948144 -0.15097082 86.53353882 C-0.11995339 57.68897578 -0.06469313 28.84450903 0 0 Z " fill="#2C66BB" transform="translate(0,282)"/>
<path d="M0 0 C79.2 0 158.4 0 240 0 C240 39.27 240 78.54 240 119 C226.03945313 119.03738281 212.07890625 119.07476562 197.6953125 119.11328125 C188.85415671 119.143555 180.01301407 119.17457721 171.171875 119.20898438 C157.13705636 119.26346445 143.10227421 119.31487775 129.06738281 119.34643555 C118.845635 119.36943347 108.623983 119.40285168 98.40231121 119.44870156 C92.99169492 119.47260944 87.5811734 119.49135422 82.17050552 119.49761391 C77.0733457 119.5036757 71.97642827 119.52371533 66.87935829 119.55427551 C65.01300936 119.56303816 63.14662874 119.56678201 61.28026009 119.56500816 C45.18225177 119.55454296 30.97289228 121.79669329 18.6171875 133.265625 C7.20264434 145.50730897 3.88267879 160.07457031 3.79467773 176.32958984 C3.78477814 177.46188019 3.77487854 178.59417053 3.76467896 179.76077271 C3.73315408 183.49413988 3.70834211 187.22751977 3.68359375 190.9609375 C3.66301645 193.55311408 3.64201977 196.14528735 3.62062073 198.73745728 C3.57111272 204.85711495 3.52582671 210.97679045 3.48259836 217.09649527 C3.42827186 224.75056229 3.36746591 232.40457609 3.30664062 240.05859375 C3.19821781 253.7056882 3.09956798 267.3528317 3 281 C-21.09 281 -45.18 281 -70 281 C-70.04511383 253.29733073 -70.08196993 225.59469112 -70.10362434 197.89199448 C-70.11394525 185.02970822 -70.12802114 172.16744637 -70.15087891 159.30517578 C-70.17078786 148.09690817 -70.18371051 136.88865823 -70.18817699 125.68037343 C-70.1907886 119.74344397 -70.19694392 113.80656508 -70.21146011 107.86965179 C-70.2250046 102.28506169 -70.22922899 96.70054315 -70.22621536 91.11593819 C-70.22676693 89.06321639 -70.23076296 87.01049228 -70.23841095 84.95778465 C-70.24832314 82.16087495 -70.2459825 79.36423743 -70.24050903 76.56732178 C-70.24633472 75.75020116 -70.2521604 74.93308053 -70.25816262 74.09119868 C-70.23764059 70.22639265 -70.1417877 67.28361152 -68 64 C-67.43097285 62.63087206 -66.87685678 61.2554744 -66.3359375 59.875 C-62.51582481 50.32864237 -58.742523 40.92958691 -52 33 C-51.34 33 -50.68 33 -50 33 C-49.73832031 32.41605469 -49.47664063 31.83210938 -49.20703125 31.23046875 C-40.69080788 15.49336989 -18.0599864 6.3533288 -2 1 C-1.01 1.495 -1.01 1.495 0 2 C0 1.34 0 0.68 0 0 Z " fill="#327FE8" transform="translate(70,0)"/>
<path d="M0 0 C57.73633558 -0.08060607 57.73633558 -0.08060607 81.93164062 -0.09765625 C87.46004244 -0.10157173 92.98844414 -0.10561261 98.5168457 -0.10986328 C99.55612322 -0.11065453 99.55612322 -0.11065453 100.61639625 -0.11146176 C111.78766644 -0.12014961 122.95891595 -0.1359113 134.1301739 -0.15430559 C145.60324326 -0.17303865 157.07629587 -0.18397431 168.54938096 -0.18817699 C174.99011301 -0.19078168 181.43079824 -0.19689318 187.87151527 -0.21146011 C193.93792111 -0.22506887 200.00426097 -0.22921596 206.07068062 -0.22621536 C208.29300546 -0.22676405 210.51533259 -0.23072178 212.7376442 -0.23841095 C215.78170381 -0.24842374 218.82551731 -0.24594585 221.86958313 -0.24050903 C223.17557125 -0.24924756 223.17557125 -0.24924756 224.50794297 -0.25816262 C247.51195869 -0.14780264 269.8620769 9.74965667 286 26 C304.44077388 45.88710909 310.66389244 68.17566603 310.45410156 94.63476562 C310.45297059 96.65680417 310.45361181 98.67884436 310.45587158 100.70088196 C310.45700991 106.13999108 310.43364456 111.5787407 310.40557575 117.01776695 C310.3804139 122.72052518 310.37820852 128.42329346 310.37347412 134.12609863 C310.36108753 144.90272332 310.32832479 155.67918391 310.28807616 166.45573664 C310.24322348 178.73396452 310.22133758 191.01220062 310.20129442 203.29049015 C310.15958796 228.52710511 310.08628999 253.76349538 310 279 C285.91 279 261.82 279 237 279 C236.96132813 266.55732422 236.96132813 266.55732422 236.921875 253.86328125 C236.89348589 247.91920446 236.8626145 241.97518089 236.8281765 236.03114033 C236.78396575 228.34359503 236.74548877 220.656166 236.72900391 212.96850586 C236.71452289 206.22506693 236.67927998 199.48198439 236.63169098 192.73869896 C236.61691854 190.17330104 236.60896138 187.60785402 236.60811615 185.04241371 C236.89401635 166.58733236 236.89401635 166.58733236 232 149 C231.48756744 147.81734306 231.48756744 147.81734306 230.96478271 146.61079407 C230.07844503 144.66009272 229.09288109 142.84193443 228 141 C227.66613281 140.41992188 227.33226562 139.83984375 226.98828125 139.2421875 C220.75968462 129.49498015 210.26058402 123.14584509 199.22393417 120.43590665 C195.66356906 119.73805019 192.17734709 119.71210803 188.55908203 119.7215271 C187.74778682 119.7157347 186.9364916 119.7099423 186.10061169 119.70397437 C183.40297076 119.68707316 180.70550194 119.68410644 178.0078125 119.68115234 C176.06576625 119.67184734 174.12372398 119.66167782 172.1816864 119.65071106 C166.92407178 119.62346154 161.66648388 119.60827659 156.40881729 119.59528303 C150.90882561 119.57963041 145.40888832 119.55284697 139.90893555 119.5272522 C129.50046967 119.48050216 119.09199352 119.44373976 108.68347645 119.41057932 C94.613867 119.36517655 80.54432492 119.30431769 66.4747715 119.24433136 C44.31654814 119.15026543 22.15830537 119.07682624 0 119 C0 79.73 0 40.46 0 0 Z " fill="#4DB259" transform="translate(313,0)"/>
<path d="M0 0 C24.09 0 48.18 0 73 0 C73.08834174 30.03041609 73.16213658 60.06075978 73.20426132 90.09126973 C73.20926357 93.64442419 73.21444091 97.19757837 73.21972656 100.75073242 C73.2207758 101.45803946 73.22182505 102.1653465 73.22290608 102.89408708 C73.24026553 114.31546439 73.27177833 125.73676036 73.30861118 137.15808957 C73.34614529 148.89560539 73.36826206 160.6330789 73.37635398 172.37065226 C73.38155178 178.95583564 73.39369998 185.54083515 73.42292023 192.1259594 C73.45024726 198.33524944 73.45841021 204.5442814 73.45243073 210.75362587 C73.45352326 213.02181785 73.46137322 215.29001925 73.4768219 217.55815887 C73.58274159 233.92391406 72.38201696 249.19275586 65.375 264.25 C65.03581543 264.9925 64.69663086 265.735 64.34716797 266.5 C60.84923352 273.82750151 56.35875984 279.93657144 51 286 C50.21882812 286.89203125 49.43765625 287.7840625 48.6328125 288.703125 C33.3797339 305.00641557 14.49943143 310.88108775 -7 316 C-35.71 316 -64.42 316 -94 316 C-94 253.96 -94 191.92 -94 128 C-68.755 127.505 -68.755 127.505 -43 127 C-25.425159 121.59235662 -15.88900269 116.51377943 -6.56640625 100.98828125 C-5.24452126 98.46648071 -4.64796576 96.70032323 -4 94 C-3.49464333 92.59816074 -2.98248583 91.19875958 -2.46452332 89.80152893 C-0.91101477 85.17210554 -0.55848899 81.03049124 -0.56762695 76.17553711 C-0.5574353 75.34516937 -0.54724365 74.51480164 -0.53674316 73.65927124 C-0.50684865 70.94855802 -0.49738364 68.23819948 -0.48828125 65.52734375 C-0.47141706 63.63447416 -0.45326449 61.74161564 -0.43388367 59.84877014 C-0.3865665 54.892298 -0.35663917 49.93587081 -0.33044434 44.97924805 C-0.29527976 39.0184939 -0.23831941 33.05791224 -0.18505096 27.09729767 C-0.10675164 18.0648876 -0.05598382 9.03270002 0 0 Z " fill="#FB3E2F" transform="translate(550,281)"/>
<path d="M0 0 C46.53 0 93.06 0 141 0 C141 62.04 141 124.08 141 188 C94.47 188 47.94 188 0 188 C0 125.96 0 63.92 0 0 Z " fill="#FEBF1A" transform="translate(312,409)"/>
<path d="M0 0 C76 0 76 0 91 5 C91 5.66 91 6.32 91 7 C92.03125 7.226875 93.0625 7.45375 94.125 7.6875 C102.02042657 9.98636918 108.39121917 17.61999429 112.484375 24.4921875 C119.78374176 38.61860905 121.30804217 55.63592042 117 71 C113.79138041 78.96084536 109.85953409 87.53274758 103 93 C102.01 93 101.02 93 100 93 C99.78859375 93.59683594 99.5771875 94.19367188 99.359375 94.80859375 C97.48295479 97.83351254 95.4712332 98.58937506 92.25 100.0625 C90.71085937 100.79146484 90.71085937 100.79146484 89.140625 101.53515625 C76.94816695 106.22297356 64.96620494 106.38768249 52.125 106.1875 C46.47375 106.125625 40.8225 106.06375 35 106 C35 125.47 35 144.94 35 165 C23.45 165 11.9 165 0 165 C0 110.55 0 56.1 0 0 Z " fill="#2E67BB" transform="translate(257,175)"/>
<path d="M0 0 C1.83162082 1.59219326 3.39543056 3.17411064 5 5 C4.23302204 6.41875765 3.46123222 7.83491452 2.6875 9.25 C2.25824219 10.03890625 1.82898438 10.8278125 1.38671875 11.640625 C0.05022446 13.91454767 -1.28476292 15.99505799 -3 18 C-3.66 18 -4.32 18 -5 18 C-5 18.99 -5 19.98 -5 21 C-5.99 21.99 -5.99 21.99 -7 23 C-7.69748583 24.31747324 -8.36959957 25.64914193 -9 27 C-9.66 27 -10.32 27 -11 27 C-11.495 27.99 -11.495 27.99 -12 29 C-12.78761719 28.40832031 -13.57523437 27.81664062 -14.38671875 27.20703125 C-28.47308654 16.89259004 -42.55825518 12.30494585 -60 14 C-62.74201315 14.79685407 -64.91630257 15.69675786 -67.37109375 17.125 C-69 18 -69 18 -72 18 C-72.28875 18.721875 -72.5775 19.44375 -72.875 20.1875 C-74 23 -74 23 -75.1875 25.25 C-76.61722276 30.08906165 -76.0061127 34.87961802 -73.85083008 39.421875 C-67.83091463 47.8073528 -53.7540613 50.53753666 -44.17971802 52.97393799 C-24.85569385 57.9213979 -5.25848433 63.07415352 6 81 C11.6468391 92.20785997 13.14768713 105.77913184 9.5 117.875 C9.02003512 119.25712109 8.52816595 120.63557128 8 122 C7.34 122 6.68 122 6 122 C6.33 122.99 6.66 123.98 7 125 C1.63292752 136.62087868 -8.52271114 144.20490627 -20 149 C-20.75023437 149.31710937 -21.50046875 149.63421875 -22.2734375 149.9609375 C-43.1152698 157.78630948 -68.93350959 154.86548032 -89 146 C-99.76842253 140.81784523 -107.13923549 135.80456772 -114 126 C-102.10169492 111.96610169 -102.10169492 111.96610169 -96 106 C-93.67125279 107.03499876 -91.8504139 108.12318855 -89.875 109.75 C-75.61809814 120.90757537 -58.93030238 125.6140277 -41 124 C-34.76360439 122.58158617 -29.99518022 120.11882465 -26 115 C-23.46524249 110.65470141 -23.3045285 105.90181719 -24 101 C-25.53384523 97.00293532 -27.38685151 94.40876566 -31 92 C-31 91.34 -31 90.68 -31 90 C-32.02867187 89.81824219 -32.02867187 89.81824219 -33.078125 89.6328125 C-36.38819551 88.91592557 -39.52751665 87.91919525 -42.75 86.875 C-47.81648256 85.24070921 -52.89595999 83.74200416 -58.046875 82.39453125 C-70.51074088 79.1134663 -81.79682679 75.4280502 -93 69 C-93 68.34 -93 67.68 -93 67 C-94.12728516 66.63261719 -94.12728516 66.63261719 -95.27734375 66.2578125 C-102.02050196 63.14260885 -106.327356 54.7103481 -109 48 C-112.26094882 36.75850547 -111.36910308 21.32897574 -106 11 C-104.22940093 8.11374285 -102.43652484 5.36690984 -100 3 C-99.34 3 -98.68 3 -98 3 C-97.67 2.01 -97.34 1.02 -97 0 C-72.46164945 -23.89260448 -25.71061733 -18.96968236 0 0 Z " fill="#2E68BB" transform="translate(232,188)"/>
<path d="M0 0 C11.88 0 23.76 0 36 0 C36.33 44.88 36.66 89.76 37 136 C61.6375124 136.28941362 61.6375124 136.28941362 86.27514648 136.56811523 C91.03137207 136.6270752 91.03137207 136.6270752 93.25526428 136.65589905 C94.81436565 136.67516818 96.37349195 136.69247867 97.93263245 136.70826721 C100.28907277 136.73250485 102.64536018 136.76288285 105.00170898 136.79467773 C105.70073806 136.80044799 106.39976713 136.80621824 107.1199789 136.81216335 C111.88597366 136.88597366 111.88597366 136.88597366 113 138 C113 146.91 113 155.82 113 165 C75.71 165 38.42 165 0 165 C0 110.55 0 56.1 0 0 Z " fill="#2E67BA" transform="translate(390,175)"/>
<path d="M0 0 C5.625 1.125 5.625 1.125 8 4 C7 6 7 6 6 7 C6 7.99 6 8.98 6 10 C4.02 10.99 4.02 10.99 2 12 C2 12.66 2 13.32 2 14 C4.475 14.495 4.475 14.495 7 15 C6.34 15.66 5.68 16.32 5 17 C5.66 17.99 6.32 18.98 7 20 C6.01 20 5.02 20 4 20 C4 20.99 4 21.98 4 23 C4.598125 23.165 5.19625 23.33 5.8125 23.5 C9.18527798 25.81276204 9.8331548 29.19891337 11 33 C9.68 32.67 8.36 32.34 7 32 C7 31.34 7 30.68 7 30 C5.68 30.33 4.36 30.66 3 31 C3.2475 31.928125 3.2475 31.928125 3.5 32.875 C4 35 4 35 4 37 C4.31478446 38.33783393 4.64587656 39.67203709 5 41 C6.65 41 8.3 41 10 41 C10.103125 40.236875 10.20625 39.47375 10.3125 38.6875 C11.05600892 35.78105605 11.84858032 34.96433971 14 33 C14 32.34 14 31.68 14 31 C14.99 31.33 15.98 31.66 17 32 C17.33 34.31 17.66 36.62 18 39 C31.86 39.495 31.86 39.495 46 40 C46 40.99 46 41.98 46 43 C48.64 43.66 51.28 44.32 54 45 C53.505 43.02 53.505 43.02 53 41 C53.66 41 54.32 41 55 41 C55.495 40.01 55.495 40.01 56 39 C57.485 39.99 57.485 39.99 59 41 C58.34 43.31 57.68 45.62 57 48 C58.32 48 59.64 48 61 48 C61 48.99 61 49.98 61 51 C60.01 51.495 60.01 51.495 59 52 C59.99 52 60.98 52 62 52 C62 50.02 62 48.04 62 46 C63.65 46.66 65.3 47.32 67 48 C67 47.34 67 46.68 67 46 C67.99 46 68.98 46 70 46 C70 46.66 70 47.32 70 48 C68.03852126 49.38938077 66.03833424 50.7260411 64 52 C65.485 52.495 65.485 52.495 67 53 C67.495 52.01 67.495 52.01 68 51 C68.33 51.99 68.66 52.98 69 54 C67.02 54 65.04 54 63 54 C63 56.64 63 59.28 63 62 C60.36 62.66 57.72 63.32 55 64 C55 64.33 55 64.66 55 65 C43.12 65 31.24 65 19 65 C18.67 84.14 18.34 103.28 18 123 C7.44 123 -3.12 123 -14 123 C-14 85.05 -14 47.1 -14 8 C-13.67 8 -13.34 8 -13 8 C-12.67 16.25 -12.34 24.5 -12 33 C-11.34 33 -10.68 33 -10 33 C-10 32.34 -10 31.68 -10 31 C-9.34 31.33 -8.68 31.66 -8 32 C-8.33 32.66 -8.66 33.32 -9 34 C-6.57732914 34.05167527 -6.57732914 34.05167527 -4 33 C-2.13016255 29.52692672 -2.13016255 29.52692672 -1 26 C-0.34 26 0.32 26 1 26 C0.67 25.01 0.34 24.02 0 23 C-0.99 23 -1.98 23 -3 23 C-3.66 23.99 -4.32 24.98 -5 26 C-5.70226141 24.75823305 -6.38629109 23.50614401 -7.0625 22.25 C-7.44535156 21.55390625 -7.82820313 20.8578125 -8.22265625 20.140625 C-9.1312406 17.63859372 -8.88336837 16.4667645 -8 14 C-8.66 14 -9.32 14 -10 14 C-9.625 12.0625 -9.625 12.0625 -9 10 C-8.34 9.67 -7.68 9.34 -7 9 C-7 8.01 -7 7.02 -7 6 C-5 7 -5 7 -3 12 C-2.01 8.04 -1.02 4.08 0 0 Z M43 43 C42.67 44.65 42.34 46.3 42 48 C42.66 48 43.32 48 44 48 C44.66 46.68 45.32 45.36 46 44 C45.01 43.67 44.02 43.34 43 43 Z " fill="#2D66B9" transform="translate(273,216)"/>
<path d="M0 0 C16.65852548 -0.12032643 16.65852548 -0.12032643 23.84375 -0.14648438 C28.717224 -0.16431143 33.59052648 -0.18523529 38.46386719 -0.22631836 C42.39965042 -0.25928419 46.33524932 -0.27693004 50.27116013 -0.28463173 C51.76122305 -0.29010934 53.25127766 -0.30080222 54.74126053 -0.31719017 C66.68938649 -0.44319318 77.64513842 1.07637202 89 5 C89 5.66 89 6.32 89 7 C91.31 7.66 93.62 8.32 96 9 C96 9.99 96 10.98 96 12 C95.34 12 94.68 12 94 12 C94 12.66 94 13.32 94 14 C94.66 14 95.32 14 96 14 C96 14.66 96 15.32 96 16 C96.66 16 97.32 16 98 16 C98.33 15.34 98.66 14.68 99 14 C99.99 14.99 99.99 14.99 101 16 C100.34 16.66 99.68 17.32 99 18 C99.99 18.99 99.99 18.99 101 20 C100.34 21.32 99.68 22.64 99 24 C100.98 24.495 100.98 24.495 103 25 C103.625 27.375 103.625 27.375 104 30 C103.34 30.66 102.68 31.32 102 32 C100.515 31.505 100.515 31.505 99 31 C99.103125 31.928125 99.20625 32.85625 99.3125 33.8125 C99.209375 34.864375 99.10625 35.91625 99 37 C96.5 38.875 96.5 38.875 94 40 C93.67 39.01 93.34 38.02 93 37 C92.13375 38.0209375 92.13375 38.0209375 91.25 39.0625 C90.5075 39.701875 89.765 40.34125 89 41 C86.75 40.75 86.75 40.75 85 40 C85 39.34 85 38.68 85 38 C84.484375 37.896875 83.96875 37.79375 83.4375 37.6875 C78.2043116 36.2114725 73.62418891 33.79885118 69 31 C64.56152293 28.76408704 60.29116882 28.65778137 55.41796875 28.5859375 C54.19670036 28.55688828 54.19670036 28.55688828 52.95075989 28.5272522 C50.36311148 28.46771248 47.77541797 28.42117417 45.1875 28.375 C43.42771551 28.3367966 41.66794926 28.2977435 39.90820312 28.2578125 C35.60561766 28.16203218 31.3029447 28.07790715 27 28 C26.01 30.475 26.01 30.475 25 33 C22 31 22 31 21.3125 28.875 C21.209375 28.25625 21.10625 27.6375 21 27 C22.32 27 23.64 27 25 27 C23.68 26.34 22.36 25.68 21 25 C21 24.01 21 23.02 21 22 C19.68 22.33 18.36 22.66 17 23 C17.66 23 18.32 23 19 23 C18.67 24.32 18.34 25.64 18 27 C17.01 26.67 16.02 26.34 15 26 C15.33 24.68 15.66 23.36 16 22 C15.54625 22.495 15.0925 22.99 14.625 23.5 C13 25 13 25 11 25 C11 25.66 11 26.32 11 27 C10.01 27.33 9.02 27.66 8 28 C6.78130071 30.50447516 6.78130071 30.50447516 6 33 C5.71125 32.360625 5.4225 31.72125 5.125 31.0625 C4.17176549 28.84793921 4.17176549 28.84793921 2 28 C1.67 34.6 1.34 41.2 1 48 C0.67 48 0.34 48 0 48 C0 32.16 0 16.32 0 0 Z M2 25 C3 27 3 27 3 27 Z " fill="#2D67BA" transform="translate(259,175)"/>
<path d="M0 0 C4.929375 -0.061875 9.85875 -0.12375 14.9375 -0.1875 C16.47398193 -0.21481201 18.01046387 -0.24212402 19.59350586 -0.27026367 C36.0557414 -0.3700348 36.0557414 -0.3700348 41.53442383 4.31103516 C48.57115835 12.19228034 49.6284838 20.82963392 49.4140625 30.92578125 C49.05357822 36.52366128 46.82819889 40.92267754 43 45 C38.60310421 48 38.60310421 48 36 48 C35.505 48.99 35.505 48.99 35 50 C31.00296946 51.16585806 27.08878488 51.11527143 22.94921875 51.09765625 C21.14070435 51.09390991 21.14070435 51.09390991 19.2956543 51.09008789 C17.01461792 51.07643188 17.01461792 51.07643188 14.6875 51.0625 C7.4171875 51.0315625 7.4171875 51.0315625 0 51 C0 34.17 0 17.34 0 0 Z " fill="#FFFFFF" transform="translate(292,203)"/>
</svg>
